<svg xmlns="http://www.w3.org/2000/svg" viewBox="0 0 1000 500">
  <path d="M101.3 357a7.7 7.7 0 0 1-4.1-2.1 25.6 25.6 0 0 1-6.9-9.1c-.5-1.2-1.3-1.5-2.6-1.5h-8.1c-3.5 0-5.6-2.2-5.6-5.6v-35.6c0-3.4 2.3-5.7 5.8-5.7h68c4.6 0 6.6 2.1 6.6 6.6 0 11.3-.1 22.6.1 33.9.1 3.9-2.5 6.6-6.6 6.5-15.7-.2-31.5-.1-47.2-.1h-1.2c-1.9.1-2.5.9-2.3 2.7.3 3 1.4 5.8 3.3 8.2.3.6.8 1 .8 1.8z" fill="#16a34a" />
  <path d="M161.3 274.9a7.3 7.3 0 0 1-5.2-4.2c-1.2-2.6-2.9-3.2-5.4-2.8h-2c-2.1-.1-3.4-1.4-3.4-3.5v-20.5c0-2.1 1.3-3.4 3.4-3.4h40.1c2.1 0 3.4 1.3 3.4 3.5v20.4c0 2.3-1.3 3.5-3.8 3.5h-27.2c-2.4 0-2.7.4-2.1 2.8.2.8.5 1.6.9 2.3l1.3 1.9zm47.8-80.6c-.8.2-1.2-.2-1.7-.6-1-.8-2.1-1.6-2.5-2.7-1-2.7-3-2.9-5.4-2.8-3.1.2-3.8-.7-3.8-3.8v-15.9c0-2.4 1-3.4 3.4-3.4h32.8c2.4 0 3.4 1 3.4 3.4V185c0 2.4-.9 3.3-3.4 3.3h-22.5c-2.2 0-2.5.4-2 2.6.3 1.3 1 2.3 1.7 3.4zm-50 18.9c2.2.5 3.5 2.1 4.4 4 .5 1 1.1 1.4 2.1 1.3h3c1.4.1 2.4 1 2.4 2.4v15.7c0 1.6-1.1 2.5-3 2.5h-29c-2.3 0-3.1-.8-3.1-3.1v-14.5c0-2.1.8-3 3-3H159c2 0 2.2-.3 1.7-2.2l-.7-1.6c-.2-.6-.5-1.1-.9-1.5z" fill="#0284c7"/>
  <path d="M230.2 287.4c-2-.5-3.2-1.9-4-3.6-.5-1-1-1.3-2.1-1.3-5.3 0-5.4-.1-5.4-5.5v-11.4c0-2.7.8-3.6 3.5-3.6h28.2c2.4 0 3.2.7 3.2 3.1v14c0 2.6-.7 3.3-3.3 3.3H231c-2.2 0-2.5.4-1.7 2.6.1.8.5 1.6.9 2.4zm-85.9-142.7c-2.1-.4-3.1-2-4-3.6-.7-1.3-1.5-1.7-2.9-1.7-4.6.1-4.6 0-4.6-4.7V122c0-2 .9-2.8 2.9-2.8h29c2.1 0 3.1 1 3.1 3v14.2c0 2.3-.8 3-3.1 3h-18.8l-1.7.1c-1.1.1-1.3.7-1.2 1.7.1 1.3.9 2.3 1.3 3.5zm-5.8 124.9c2.2.6 3.4 2.1 4.3 3.9.5 1 1.1 1.3 2.2 1.2h2.5c1.8 0 2.8 1 2.8 2.8v14.9c0 1.6-.9 2.5-2.5 2.6h-29.9c-1.7 0-2.5-.8-2.5-2.5v-15.1c0-1.8.9-2.6 2.9-2.6h19.5c2.5 0 2.9-.7 2-3l-1.3-2.2zm60.5 70.8a5.8 5.8 0 0 1-3.4-3.1c-.5-1-1.2-1.4-2.3-1.4-4 .1-4.1-.1-4.1-4.1v-10.4c0-1.8.7-2.6 2.5-2.6h24.1c1.7 0 2.5.7 2.6 2.5v12.1c0 1.8-.9 2.5-2.7 2.5h-16c-2.2 0-2.6.5-1.7 2.6l1 1.9zm-71.3-173.9a4.4 4.4 0 0 1-3-2.6c-.6-1.1-1.3-1.5-2.5-1.3-.5.1-1.1.1-1.6 0-.9-.2-1.6-.7-1.6-1.8v-11.2c0-1.2.7-1.8 1.9-1.8h21.3c1.4 0 2 .9 2 2.2v10.3c0 1.7-.6 2.3-2.3 2.4h-13.5c-2.3 0-2.6.5-1.5 2.6l.8 1.2zm39.1 191.9a4.5 4.5 0 0 1-2.9-2.5c-.4-.8-1-1.1-1.8-1h-1.7c-1.2-.1-1.9-.7-1.9-2V342c0-1.2.7-2 1.9-2h21.3c1.4 0 2 .8 2 2.2v10.3c0 1.8-.6 2.4-2.5 2.4h-13.4c-2.2 0-2.5.5-1.6 2.4l.6 1.1zm-50.4 7.8a4.1 4.1 0 0 1-2.7-2.2c-.7-1.3-1.6-1.6-3-1.6-2.4.1-2.8-.3-2.8-2.7v-9.5c0-1.9.5-2.4 2.3-2.4H131c1.7 0 2.2.4 2.2 2.1v10.4c0 1.6-.6 2.1-2.2 2.1h-13.9c-2.1 0-2.4.4-1.5 2.4l.8 1.4z" fill="#16a34a" />
  <path d="M213.2 220c-.6-1.7-1.7-2.5-3.6-2.3-1.8.2-2.3-.5-2.4-2.2v-9.6c0-1.7.6-2.2 2.3-2.2h19.6c1.8 0 2.3.6 2.3 2.3v9.5c0 1.8-.6 2.3-2.3 2.3h-12.9c-2.1 0-2.4.5-1.4 2.5l.6 1.1c-1.1-.1-1.5-1.1-2.2-1.4zm-36.3-32.5a4.9 4.9 0 0 1-2.8-2.4c-.5-1-1.1-1.3-2.2-1.3-3 .1-3.3-.2-3.3-3.3v-8.4c0-2 .5-2.5 2.5-2.5h19.3c2 0 2.5.5 2.5 2.5v9.3c0 1.8-.6 2.4-2.4 2.4h-12.9c-2 0-2.3.5-1.4 2.3l.7 1.4zm32.6 84.3.4-.8c.5-.8 1.2-1.7.7-2.6-.4-.8-1.5-.4-2.3-.4h-11.7c-1.8 0-2.3-.5-2.3-2.3v-9c0-1.7.6-2.2 2.3-2.2h18.7c1.7 0 2.2.6 2.2 2.3v8.9c0 1.9-.5 2.5-2.4 2.4-1.4-.1-2.4.2-3.1 1.6-.4.9-1.2 1.5-2.5 2.1zm-33.2 29.4c1.8-3.9 1.4-3.5-2.1-3.5h-10.9c-1.9 0-2.4-.5-2.4-2.4v-8.7c0-1.9.5-2.5 2.4-2.5h18.5c1.7 0 2.2.5 2.3 2.2 0 3.1-.1 6.2 0 9.3 0 1.5-.7 2.2-2.1 2-1.6-.2-2.7.3-3.5 1.8-.4.9-1.1 1.5-2.2 1.8zm60.6-115.5c1.1.4 1.7 1.2 2.2 2.1.5 1 1.2 1.4 2.3 1.3 2.7-.1 2.9.2 2.9 2.9v8.4c0 1.8-.4 2.2-2.1 2.2h-19c-1.7 0-2.1-.5-2.2-2.2v-9c0-1.8.5-2.3 2.3-2.3h12.3c2.1 0 2.4-.5 1.5-2.4l-.4-.8.2-.2zm-64.4 132.8c1.3-3.4 1.3-3.4-2.5-3.4h-10.2c-1.9 0-2.4-.5-2.4-2.4v-8.9c0-1.4.6-2.1 2.1-2.1H178c1.4 0 2.1.6 2.1 2v9.2c0 1.4-.7 2.2-2.1 2.1-1.6-.2-2.7.2-3.5 1.8-.3.8-1 1.4-2 1.7z" fill="#0284c7"/>
  <path d="M184.6 151.9c-1-.6-1.9-1.3-2.3-2.3-.5-1-1.1-1.2-2.1-1.2-2.8 0-2.9-.1-2.9-2.9v-8.2c0-1.6.6-2.2 2.1-2.2h18.2c1.7 0 2.3.5 2.4 2.2v9.2c0 1.4-.8 2-2.2 2h-12c-2.1 0-2.5.5-1.5 2.5.2.1.6.3.3.9z" fill="#16a34a" />
  <path d="M136 252.3c1 .3 1.7 1.1 2.1 2 .5 1 1.1 1.3 2.2 1.2 2.7-.1 2.9.2 2.9 2.9v8.2c0 1.6-.5 2.1-2.1 2.1h-18.3c-1.6 0-2.1-.5-2.1-2.1v-9c0-1.6.6-2.1 2.2-2.1H135c1.9 0 2.2-.4 1.4-2.1l-.4-.8v-.3z" fill="#0284c7"/>
  <path d="M240.3 242.9c1 .3 1.6 1.2 2.1 2 .5 1 1.2 1.2 2.2 1.2 2.6-.1 2.8.2 2.8 2.8v8.4c0 1.4-.6 2.1-2.1 2.1h-18.5c-1.5 0-2.1-.6-2.1-2.2v-8.9c0-1.6.6-2.2 2.2-2.2h12c2.2 0 2.3-.2 1.5-2.2l-.3-.9.2-.1zM122.8 133.8l.6-1.1c.9-1.8.6-2.4-1.4-2.4h-11.8c-1.9 0-2.3-.4-2.3-2.3v-9c0-1.5.7-2.1 2.1-2.1h18.5c1.3 0 2 .5 2 2v9.5c0 1.3-.7 2-1.9 1.9-1.7-.2-2.8.2-3.6 1.8-.4.7-1 1.4-2.2 1.7zm113.2 173c1.8-4.2.8-3.5-2.3-3.5h-10.6c-1.8 0-2.2-.4-2.2-2.2v-9c0-1.5.6-2.1 2-2.1h18.5c1.3 0 2 .6 2 2v9.5c0 1.2-.5 1.9-1.6 1.8-1.9-.2-3.2.4-4.1 2.1a3 3 0 0 1-1.7 1.4z" fill="#16a34a" />
  <path d="M141.6 200c-1.6 3.4-1.6 3.5 2 3.5h10.9c1.7 0 2.2.5 2.2 2.2v8.7c0 1.8-.5 2.2-2.2 2.2h-18.4c-1.7 0-2.1-.4-2.1-2.1v-9c0-1.5.7-2.2 2.1-2 1.5.2 2.7-.2 3.3-1.7.4-.8 1.1-1.5 2.2-1.8zm38.6 29.8c-1.5-.7-2.2-1.5-2.7-2.5s-1.1-1.2-2.1-1.2c-2.6.1-2.9-.2-2.9-2.8v-8.1c0-1.4.6-2.1 2.1-2.1h18.1c1.6 0 2.1.5 2.1 2.1v8.7c0 1.6-.5 2.1-2.2 2.1h-11.8c-2 0-2.2.4-1.4 2.1.1.6.3 1 .8 1.7zm66.3-10.7c1.3-2.7 1.8-3.3-1.8-3.2h-10.3c-1.4 0-2.1-.5-2.1-2v-8.4c0-1.5.7-2 2.1-2h17.1c1.3 0 2.1.5 2.1 1.9v8.6c0 1.2-.5 2.1-1.9 1.9-1.6-.2-2.6.2-3.4 1.7-.2.7-.8 1.3-1.8 1.5zM153.3 187a3 3 0 0 1-1.8-1.7c-.5-1-1.2-1.2-2.2-1.2-1.9.1-2.2-.3-2.2-2.1v-7.3c0-1.3.5-1.9 1.9-1.9h15.7c1.3 0 1.8.7 1.8 1.9v7.5c0 1.4-.6 2-2 2h-9.8c-2.2 0-2.4.3-1.4 2.3 0 0 .2.2 0 .5zm24.3 95.7.3-.7c.6-1.5.4-1.7-1.2-1.7h-10.1c-1.5 0-2.1-.6-2.1-2v-7.1c0-1.5.6-2 2.1-2h15.1c1.4 0 2 .5 2 1.9v7.6c0 1.1-.4 1.8-1.6 1.6-1.4-.2-2.5.2-3.1 1.6-.2.5-.7.9-1.2 1.1l-.2-.3zm21.4 2c1.1-2.9 1.1-2.9-2-2.9h-8.7c-1.7 0-2.1-.4-2.1-2.1v-7.2c0-1.4.6-2 2-2h15.2c1.4 0 2 .6 2 1.9v7.3c0 1.3-.5 2-1.8 1.9-1.2-.1-2.1.2-2.7 1.4-.5.9-1.1 1.4-1.9 1.7zm23.3-41.1c1.1-2.8 1.1-2.8-2-2.8h-8.9c-1.5 0-2.1-.6-2-2.1v-7.2c0-1.4.5-2 1.9-2h15.4c1.2 0 1.8.5 1.8 1.8v7.8c0 1.1-.6 1.7-1.6 1.6-1.5-.2-2.4.3-3.1 1.6-.3.6-.7 1.2-1.5 1.3zm-25 63.8c1.2-2.8 1.2-2.8-1.8-2.8h-9c-1.4 0-2-.5-2-1.9v-7.5c0-1.2.5-1.8 1.8-1.8h15.5c1.2 0 1.8.6 1.7 1.8v7.6c0 1.1-.4 1.8-1.5 1.7-1.5-.1-2.6.2-3.2 1.6a2 2 0 0 1-1.5 1.3z" fill="#0284c7"/>
  <path d="M193.1 241.2c1.2-2.9 1.2-2.9-1.8-2.9h-8.5c-1.4 0-2-.5-1.9-1.9v-7c0-1.2.5-1.8 1.7-1.8h14.9c1.2 0 1.7.5 1.7 1.7v7.4c0 1-.5 1.6-1.5 1.5-1.4-.1-2.4.2-3 1.6-.3.7-.9 1.1-1.6 1.4z" fill="#0284c7"/>
  <path d="m149.7 201.6-.6-.1c-1.1-1.2-2.1-2.4-4-2.2-.7.1-1-.8-1-1.5v-6.7c0-1.1.5-1.6 1.6-1.6h13.8c1.2 0 1.7.6 1.6 1.7v6.3c0 1.3-.6 1.9-1.9 1.9h-8.1c-2.3 0-2.3 0-1.4 2.2zM211 317.3l.4-1c.3-.9 0-1.2-.9-1.2h-8.3c-1.4 0-2-.5-1.9-1.9v-5.6c0-1.3.6-1.8 1.9-1.8h12.1c1.3 0 1.9.4 1.9 1.8a56 56 0 0 0 0 5.8c0 1.2-.5 1.9-1.7 1.8-.9-.1-1.6.2-2 1.1l-1.2 1.4c0-.2-.1-.3-.3-.4z" fill="#16a34a" />
  <path d="M190.2 156.2c.4-.1.6.2.8.4.7 1.1 1.5 2 3.1 1.7.7-.1.9.6.9 1.2v6.2c0 .9-.4 1.3-1.3 1.3h-12.3c-1 0-1.4-.5-1.4-1.4v-5.9c0-1.1.6-1.4 1.6-1.4h7c2.1 0 2.1 0 1.6-2.1zm-56.5 45.1.4-.9c.6-1.1.4-1.6-1-1.6h-7.6c-1.3 0-1.8-.4-1.7-1.7v-5.4c0-1.1.4-1.6 1.6-1.6h12c1 0 1.5.5 1.5 1.5v5.9c0 .6-.2 1.4-.8 1.3-1.8-.3-2.5 1-3.5 2l-.9.5z" fill="#0284c7"/>
  <path d="M100.2 133.3c.7-2.3.7-2.3-1.4-2.3h-7.1c-1.1 0-1.5-.4-1.5-1.5v-5.9c0-1 .4-1.4 1.4-1.4h12c1.1 0 1.6.5 1.6 1.6v5.6c0 .7-.2 1.6-1 1.5-1.7-.2-2.4.8-3.2 1.9l-.8.5z" fill="#16a34a" />
  <path d="m157.5 153 .9.8c.4.9 1 1.2 2 1.1 1.1-.2 1.6.4 1.6 1.6v5.7c0 1.1-.4 1.5-1.5 1.5h-12c-1.1 0-1.6-.5-1.6-1.6v-5.6c0-1.2.6-1.6 1.7-1.6h7.4c1.5.1 1.7-.5 1.2-1.7l.3-.2z" fill="#0284c7"/>
  <path d="M147 357.4c.2-1.9.2-1.9-1.7-1.9h-6.5c-1.2 0-1.7-.4-1.7-1.6v-5.1c0-1.1.5-1.6 1.6-1.6h11c1.1 0 1.7.5 1.7 1.6v5.3c0 .7-.2 1.6-1.1 1.5-1.4-.2-2.2.6-2.8 1.6l-.5.2zm82.7-39c.5-2 .5-2-1.6-2h-6.5c-1.1 0-1.6-.4-1.6-1.5v-5.3c0-1.1.4-1.6 1.4-1.6h11.2c1 0 1.5.4 1.5 1.5v5.4c0 .7-.1 1.5-.9 1.3-1.5-.2-2.2.6-2.8 1.6-.1.3-.4.4-.7.6z" fill="#16a34a" />
  <path d="M58.6 327.6c.4-1.9.4-1.9-1.5-1.9h-6.5c-1.1 0-1.6-.4-1.6-1.6V319c0-1 .4-1.6 1.4-1.6h11.2c.9 0 1.3.4 1.3 1.3v5.6c0 .6-.2 1.3-.7 1.2-1.8-.2-2.5 1.1-3.6 2.1z" fill="#0284c7"/>
  <path d="M67.6 340.8c.7-2 .7-2-1.1-2H60c-1.3 0-1.9-.5-1.8-1.9v-4.7c0-1.1.3-1.6 1.6-1.6h10.9c1.2 0 1.6.4 1.6 1.6v5c0 .7-.2 1.6-1 1.5-1.4-.1-2.2.6-2.9 1.6l-.8.5z" fill="#16a34a" />
  <path d="M253.3 230.1c.5-1.2.3-1.7-1.2-1.7-2.1.1-4.3 0-6.4 0-1.2 0-1.7-.5-1.7-1.7V222c0-1 .4-1.6 1.5-1.6h10.6c1 0 1.4.4 1.4 1.4v5.1c0 .5-.1 1.2-.5 1.2-1.7-.2-2.5 1.1-3.6 1.9l-.1.1zm-14.8-1.5c.5-2 .5-2-1.5-2h-6.2c-1.1 0-1.5-.4-1.5-1.5v-5c0-1.1.5-1.5 1.5-1.4h10.4c1.1 0 1.6.4 1.6 1.6v5c0 .6-.1 1.4-.8 1.3-1.5-.2-2.2.7-3 1.7l-.5.3zM135.4 252c-.2.1-.3.4-.5.4-1.6.1-2.9.7-3.7 2.2.3-2 .3-2-1.6-2h-6c-1.2 0-1.6-.5-1.6-1.6v-4.7c0-1.2.5-1.6 1.6-1.6h10.1c1.1 0 1.6.4 1.6 1.6l.1 5.7c-.1 0 0 0 0 0z" fill="#0284c7"/>
  <path d="M194.8 350.9c.5-1.2.2-1.6-1.2-1.6-2.1.1-4.3 0-6.4 0-1.1 0-1.5-.4-1.5-1.5V343c0-1.1.5-1.5 1.5-1.5h10.3c.9 0 1.3.3 1.3 1.3v5.3c0 .4-.1 1.1-.5 1-1.6-.2-2.3 1.2-3.5 1.8z" fill="#16a34a" />
  <path d="M206 164.3c.3-1.5-.3-1.9-1.8-1.8h-5.6c-1.2 0-1.7-.3-1.7-1.6v-4.5c0-1.1.4-1.5 1.5-1.5h10.1c.9 0 1.5.3 1.5 1.3v5c0 .5-.1 1.2-.6 1.1-1.6-.1-2.3 1.2-3.4 2zm-21.2 162.1c.2-1.1-.3-1.3-1.2-1.3h-6.8c-1 0-1.4-.3-1.3-1.4V319c0-.9.2-1.3 1.2-1.3h10.4c.9 0 1.2.4 1.2 1.2v4.9c0 .8-.4 1.2-1.1 1.1-1.2-.1-1.8.6-2.4 1.5zm-44.1-138.7c.8-1.7.2-2-1.2-1.9h-6c-1.1 0-1.6-.3-1.6-1.5v-4.8c0-.9.4-1.3 1.3-1.3h10.4c1 0 1.4.4 1.3 1.4v4.8c0 .5 0 1.3-.6 1.2-1.7 0-2.5 1-3.6 2.1zm52.4 16.2c.5-1.1.1-1.5-1.1-1.4-2.1.1-4.2 0-6.4 0-1.2 0-1.6-.4-1.5-1.6v-4.6c0-1 .4-1.4 1.4-1.4h10.2c1 0 1.4.4 1.3 1.4v4.8c0 .6-.1 1.4-.7 1.3-1.6-.3-2.1 1-3 1.7l-.2-.2zm9.2 48.7c.3-1 0-1.4-1.1-1.3h-5.6c-1.1 0-1.6-.4-1.6-1.6v-4c0-.9.3-1.5 1.3-1.4h9.3c.9 0 1.3.3 1.3 1.3v4.5c0 .6-.2 1.2-.8 1.2-1.4-.2-1.9.9-2.8 1.6v-.3zm-86.3 3.3c.4-1.1.1-1.5-1.1-1.4h-5.7c-1 0-1.4-.4-1.4-1.4v-4.2c0-1 .3-1.4 1.3-1.4h9.3c1 0 1.4.4 1.4 1.4v4.2c0 .5-.1 1.3-.6 1.2-1.6-.3-2.1 1.1-3.1 1.6-.1.1-.1.1-.1 0zm74.7 59.4c.3-.9.2-1.4-1-1.4h-5.8c-1.2 0-1.6-.4-1.5-1.6v-4.2c0-.8.4-1.2 1.2-1.2h9.5c1 0 1.3.5 1.3 1.3v3.1c0 1.4.2 2.8-2 2.6-.8-.1-.8 1.3-1.7 1.5v-.1zm22.5-95.4.1 5.7c0 .7-.2 1.3-1 1.2-.9-.1-1.5.2-1.9 1-.2.3-.4.8-.9.5.6-1.2.2-1.6-1.1-1.6H203c-1.1 0-1.6-.3-1.6-1.5v-4c0-1 .3-1.4 1.3-1.4 3.5.2 7 .2 10.5.1 0 .1 0 0 0 0zm-19.9 71.9c.5-1.2.2-1.6-1.1-1.6h-5.4c-1.1 0-1.6-.3-1.6-1.5v-4c0-1 .2-1.4 1.3-1.4h9.3c.9 0 1.3.4 1.3 1.3v4.4c0 .4 0 1.1-.4 1.1-1.6-.2-2.3 1.2-3.4 1.7zm54.2-61.5c-.2.8-.1 1.3 1 1.3h5.3c1.1 0 1.5.4 1.5 1.5v3.7c.1 1-.3 1.4-1.3 1.4h-8.5c-1 0-1.4-.4-1.3-1.4v-3c-.1-1.3-.1-2.4 1.8-2.3.7.1.6-1.1 1.5-1.2z" fill="#0284c7"/>
  <path d="M214.1 289c.2-1.1-.1-1.6-1.4-1.5h-5.3c-1.1 0-1.5-.4-1.4-1.5v-3.9c0-.9.4-1.3 1.3-1.3h9c.9 0 1.3.4 1.3 1.3v3.1c.1 1.3.1 2.4-1.8 2.3-.9 0-.9 1.3-1.7 1.5z" fill="#16a34a" />
  <path d="M166.5 335.7c-.8-.5-1.4-1.6-2.7-1.4-.4.1-.6-.5-.6-.9V329c0-.8.4-1.1 1.2-1.1h8.7c.9 0 1.2.3 1.2 1.2v4c0 1-.4 1.3-1.3 1.3h-5.3c-1 0-1.3.2-1.1 1.2l-.1.1zm2.5-179.8c0-.5-.9.1-.7-.4.6-1.8-.7-1.2-1.4-1.2h-4.5c-.9 0-1.5-.3-1.4-1.3v-3.7c0-.8.3-1.2 1.2-1.2h8.4c.8 0 1.2.3 1.2 1.2v3c.1 1.2.1 2.3-1.7 2.2-.7-.2-1.4.5-1.1 1.4z" fill="#0284c7"/>
  <path d="M234.1 241.4c-.8-.5-1.3-1.6-2.6-1.4-.4.1-.7-.4-.7-.9v-.8c.1-5.4-.7-4.6 4.5-4.7h4.8c1 0 1.5.4 1.5 1.5v3.6c0 1-.4 1.4-1.4 1.4h-4.8c-1.1 0-1.5.3-1.3 1.3z" fill="#16a34a" />
  <path d="M115.6 142.7c.5-1.2.1-1.5-1-1.4h-5c-1 0-1.4-.4-1.4-1.4v-3.6c0-.9.3-1.3 1.3-1.3h8.2c.9 0 1.3.4 1.3 1.3v3c.1 1.2 0 2.2-1.7 2.1-.7-.1-.7 1.1-1.7 1.3z" fill="#0284c7"/>
  <path d="M189.6 212.7c-.1-1.4-.1-1.4-1.6-1.4h-4.5c-1 0-1.6-.3-1.5-1.4v-3.6c0-.9.4-1.3 1.3-1.3h8.2c1 0 1.4.5 1.3 1.4v2.5c0 1.3.2 2.6-1.8 2.4-.6 0-.6 1.2-1.4 1.4z" fill="#16a34a" />
  <path d="M129.1 214.1c.4-1 .1-1.4-1-1.3h-5c-1 0-1.4-.4-1.4-1.4-.2-4.9-.3-4.9 4.5-4.9h4.4c1.6-.1 2 .5 1.9 2v2.5c.1 1.1-.1 2-1.6 1.8-.9-.1-.8 1.4-1.8 1.3z" fill="#0284c7"/>
  <path d="M178.6 132.8c.2-.9-.3-1.2-1.2-1.2h-5.1c-.8 0-1.3-.3-1.2-1.2v-.3c-.1-4.8-.1-4.8 4.6-4.8h4.6c1 0 1.4.4 1.4 1.4v2.5c0 1.2.3 2.6-1.7 2.5-.4 0-.9.7-1.3 1.2l-.1-.1z" fill="#16a34a" />
  <path d="M168.3 326.9c.4-1 .1-1.3-.8-1.3h-4.7c-1 0-1.6-.3-1.5-1.4v-3.3c-.1-1.1.4-1.4 1.5-1.4h7.3c1.1 0 1.6.3 1.5 1.4v2.5c.1 1.2.1 2.3-1.7 2.2-.6 0-.7 1.1-1.6 1.3z" fill="#0284c7"/>
  <path d="M154.7 150.9c.2-1.1-.3-1.3-1.3-1.3h-4.5c-1 0-1.4-.3-1.4-1.4v-3.4c0-1 .3-1.4 1.3-1.4h7.6c1 0 1.4.4 1.4 1.4v2.6c0 1.2.2 2.3-1.7 2.2-.7 0-.7 1.2-1.4 1.3z" fill="#16a34a" />
  <path d="M222.6 164.3c.2-1.1-.3-1.4-1.4-1.3h-4.3c-1 0-1.3-.4-1.3-1.3.1-5.6-.9-4.4 4.3-4.6h4.4c.9 0 1.3.4 1.3 1.3v2.6c0 1.1.1 2.1-1.6 2-.7 0-.7 1.2-1.4 1.3zm-20.3 53.2c.6-1.3-.2-1.3-1.1-1.3H197c-1.1.1-1.4-.4-1.4-1.5-.1-4.3-.1-4.3 4.1-4.3h4.5c.8 0 1.2.3 1.2 1.2v2.6c0 1.1.1 2.1-1.5 2-.7-.1-.8 1.1-1.6 1.3z" fill="#0284c7"/>
  <path d="M208.2 148.4c.1-.7-.2-1-1-1h-4.8c-2-1.1-.7-3-1-4.4-.2-1 .6-1.2 1.4-1.1h6.8c1 0 1.4.4 1.3 1.4v2.5c.1 1.1-.1 1.9-1.4 1.8-.6-.1-.7.7-1.3.8z" fill="#16a34a" />
  <path d="M158.7 283.4c.3-1 0-1.3-.9-1.3h-3.5c-.2 0-.6.1-.8 0-1.7-1-.5-2.6-.8-3.9-.2-.7.1-1.3 1.1-1.3h7.2c.8.2.7 1 .7 1.5-.2 1.2.8 2.8-.7 3.5-1 .4-1.7.7-2.3 1.5zm83.3-97.5c0-.7-.1-1.2-1-1.1h-3.9c-.4 0-.9.1-1-.4-.2-1.3-.2-2.7 0-4 .1-.5.6-.5 1-.5h6.9c1.2 1 .4 2.4.6 3.6.1.5.2 1.3-.7 1.3-1 0-1.4.5-1.9 1.1zm-24.4 61.8c0-.6-.2-1-.9-.9h-4.1c-1.3.1-1.2-.9-1-1.6.3-1.1-1.1-3 1-3.3 2.1-.3 4.2-.1 6.4-.1h.5c1.3.9.4 2.2.6 3.3.1.6.4 1.6-.6 1.6s-1.3.7-1.9 1z" fill="#0284c7"/>
  <path d="M113.9 270.1c.1-.8-.4-.9-1.1-.9h-3.7c-.8 0-1.1-.2-1.1-1.1.1-4.6-.5-3.8 3.5-3.9h3.6c.5 0 1.2 0 1.2.7v3.7c0 .3-.2.6-.5.5-.9-.2-1.2.8-1.9 1z" fill="#16a34a" />
  <path d="M169 155.9h7c.9 0 1.3.3 1.3 1.2v2c0 .9 0 1.8-1.3 1.7-.4 0-.5.3-.7.6-.1.2-.4.4-.5.3-1-1.8-2.6-.7-3.9-.8-2-.2-2-.1-2-2.1l.1-2.9zm38.6 46.4c-.1-.6-.1-1.1-.9-1h-3.9c-.8 0-1.1-.3-1.1-1.1-.3-3.8-.3-3.8 3.5-3.8h3.6c.9 0 1.4.3 1.3 1.2v2c0 .9.1 1.8-1.3 1.7-.6 0-.6.8-1.2 1z" fill="#0284c7"/>
  <path d="M171.8 146.6c0-.7-.3-1-1-.9h-3.6c-.5 0-1.1.1-1.2-.5-.3-1.3-.2-2.7 0-4 .1-.5.6-.5 1-.5h6c.8 0 1.2.3 1.2 1.2v1.7c0 1 .2 2.1-1.4 2.2-.3-.1-.7.5-1 .8zm17.4 46.3c0-.7-.3-1-1.1-1h-3.7c-.5 0-1.1 0-1.1-.6v-3.7c0-.6.6-.6 1.1-.6h6.1c.8 0 1.2.4 1.2 1.2v2c0 .9.1 1.8-1.3 1.7-.6.1-.6.9-1.2 1zm-42.6-22.4c0-.7-.3-1-1-1h-3.7c-.5 0-1.1 0-1.1-.6v-3.7c0-.6.6-.6 1.1-.6h6.1l.6.1c1.2 1 .3 2.3.6 3.5.1.5.1 1.3-.7 1.3-1-.1-1.3.7-1.9 1zm23.9 35.1c-.1-.8-.7-.6-1.2-.7h-3.4c-1 0-1.4-.4-1.3-1.4V201c0-.8.3-1.1 1.1-1.1h6.1c.8 0 1.3.3 1.2 1.2v1.6c0 1.2.2 2.4-1.6 2.3-.3.1-.4.7-.9.6zm-41.9-65h.9c3.1 0 3.7.8 3.1 3.9-.2.9-.8.8-1.4.9-.4.1-.5 1.3-1.3.2-.5-.7-1.9-.1-2.8-.2-.8-.1-2 .5-2.4-.5-.4-1.1-.2-2.5-.1-3.7.1-.5.6-.5 1-.5l3-.1z" fill="#16a34a" />
  <path d="M53.1 328.4h.6c3 0 3.3.3 2.8 3.3-.1.7-1.6 1.2-2.3 1-1-.4-2.1-.2-3.1-.1-1.9.2-1.7-1-1.7-2.2-.1-1.3.1-2.3 1.8-2h1.9z" fill="#0284c7"/>
  <path d="M212.3 150.2c0-2 0-2 2.1-2.1h3.9c.8 0 1.1.3 1.2 1.1.2 2.2-.2 2.8-2 3.7l-.3.1c-.5-1.6-1.8-.7-2.7-.7-2.2-.2-2.2-.1-2.2-2.1z" fill="#16a34a" />
  <path d="M135.3 169.6h.8c2.8 0 3.1.4 2.7 3.2-.1.8-1.5 1.2-2.3.9-1-.2-2.1-.2-3.1-.1-1.9.2-1.6-1-1.6-2.1-.1-1.2 0-2.2 1.7-2 .5.2 1.2.1 1.8.1zm32.4 18h.8c2.9.1 2.6-.7 2.6 2.8 0 1.2-1.1 1.6-2.3 1.3-1-.2-2.1-.2-3.1-.1-1.2.1-1.8-.3-1.6-1.6v-.8c-.2-1.4.4-1.9 1.7-1.7.7.2 1.3.1 1.9.1zm8.7 3.1h.6c3.1 0 3.1 0 2.8 3.1-.1.9-1.4 1.3-2.3 1.1-.9-.2-2-.2-2.9-.1-1.4.1-1.8-.4-1.8-1.7.1-2.8-.1-2.3 2.3-2.3h1.3v-.1z" fill="#0284c7"/>
  <path d="M69 321.1c-.1-.8-.7-.6-1.2-.6h-1.6c-2.2 0-2.1 0-2.2-2.1-.1-1.5.3-2.1 1.9-2h3.9c1 0 1.2.4 1.4 1.4.2 1.8-.4 2.8-2.2 3.3zm12.2 30.5c-.1-.7-.6-.6-1-.6h-1.9c-2.1 0-2.1 0-2.1-2s0-2 2.1-2H82c.9 0 1.2.3 1.3 1.2.3 1.7-.2 3-2.1 3.4zm174.1-105.9h1.4c2.4 0 2.4 0 2.3 2.4 0 .9-1.4 2.2-2.1 1.8-1.3-.8-2.6-.4-3.9-.4-1.7 0-1.5-.9-1.5-2 0-1-.1-2 1.5-1.8h2.3zM224.2 321h1.2c2.4 0 2.4 0 2.4 2.3 0 1-1.2 2.3-2 1.9-1.5-.8-2.9-.2-4.3-.4-1.8-.2-.9-1.5-1.1-2.4-.2-.9.1-1.5 1.2-1.4h2.6z" fill="#16a34a" />
  <path d="M179.2 234.4c.7 1.5-1.2 2.2-1.6 2.1-1.6-.7-3.2 0-4.6-.5-.9-.3-.3-1.4-.4-2.1-.2-1.3.3-1.9 1.7-1.7h3c1.9-.1 1.9-.1 1.9 2.2z" fill="#0284c7"/>
  <path d="M160.2 360.7c.8 1.8-1.6 2.4-1.7 2.3-1.6-1.2-3.6.1-5.1-.7-1-.5-.3-1.9-.4-2.9-.1-.7.6-.7 1.1-.7h4.2c1.7-.1 2.3.4 1.9 2z" fill="#16a34a" />
  <path d="M200.6 204.1h.6c2.9.1 2.6-.6 2.6 2.8 0 1.1-1.2 1.6-2.3 1.2-.9-.3-1.9-.2-2.9-.1-1.2.1-1.7-.3-1.5-1.5v-1.2c-.1-1 .4-1.3 1.3-1.2h2.2z" fill="#0284c7"/>
  <path d="M182.7 332.9h1.1c2.3 0 2.3 0 2.2 2.3 0 1.3-1 1.9-2.3 1.6-.9-.2-2-.2-2.9-.1-.9 0-1.3-.3-1.2-1.2v-1.2c-.1-1.1.3-1.4 1.3-1.3l1.8-.1zm24.6-39.2h.6c2.6 0 2.6 0 2.5 2.6-.1 1.2-1.1 1.6-2.1 1.2-.9-.3-1.9-.2-2.8-.1-1.7.2-1.4-.9-1.4-1.9 0-.9-.3-2.1 1.4-1.9.6.2 1.2.1 1.8.1zm-35.5-84.8c.7 1.4-.6 1.8-1.4 2.3-.6.4-.5-.7-1.2-.6-.8.2-1.7 0-2.6.1-.8 0-1.2-.3-1.1-1.1V208c-.1-.9.3-1.2 1.2-1.2 1.1.1 2.2.1 3.2 0 1.6-.1 2.3.4 1.9 2.1z" fill="#16a34a" />
  <path d="M115.4 258.6h.9c.6.1 1.6-.4 1.6.8 0 1 .5 2.5-1.1 2.5-1.3 0-2.7.2-3.8-.3-.7-.3-.3-1.5-.2-2.3 0-.6.6-.6 1.1-.6h1.5v-.1zm104.6-6.9h.9c.6.1 1.6-.5 1.6.7 0 1 .5 2.5-1.1 2.5-1.2 0-2.7.2-3.8-.3-.7-.3-.3-1.5-.3-2.3 0-.7.6-.6 1.1-.6h1.6zm28.9-53.7h1.1c.6.1 1.5-.4 1.5.7 0 1 .4 2.5-1.1 2.5-1.2 0-2.6.1-3.7-.3-.8-.3-.3-1.4-.4-2.1-.1-.6.3-.8.9-.8h1.7zm-70.4 129.1h.9c.6.1 1.6-.5 1.6.8 0 .9.5 2.3-1 2.4-1.3.1-2.7.1-3.9-.3-.7-.2-.3-1.5-.3-2.3 0-.7.6-.5 1.1-.6h1.6zm70.5-86.6h.8c.6.1 1.4-.4 1.7.4.2.7.4 1.7-.1 2.4-.3.5-1.1.8-1.9.3-.3-.2-.9 0-1.4 0-1.7 0-2.3-.9-1.8-2.6.2-.4.4-.5.8-.5h1.9zM68.7 301.8h1.1c.5.1 1.5-.3 1.4.6-.1.8.9 2.3-.8 2.5a9 9 0 0 1-4-.2c-.7-.2-.3-1.5-.3-2.3 0-.7.6-.6 1-.6h1.6zm-.1 8h1.2c1.1-.2 1.3.4 1.3 1.3 0 1.1-.4 1.4-1.4 1.3-.5-.1-1 0-1.6 0-.9 0-2 .3-1.9-1.3 0-1.6 1-1.2 1.9-1.2.1-.2.3-.1.5-.1zm169.8-136.6c.9-.1 2.1-.3 1.9 1.6-.1.6-.2.9-.8.9-1 0-2.1.1-3.1-.2-.7-.2-.3-1.1-.4-1.6-.1-.5.3-.7.8-.7h1.6z" fill="#0284c7"/>
  <path d="M197.1 193.5c-1.2-.1-2.6.4-2.3-1.6.1-.6.3-.9 1-.9h1.6c1.1-.1 1.9-.1 1.8 1.5-.1 1.4-1 1.2-1.9 1h-.2zm-18.9 13.1c-.6-.1-1.4.3-1.8-.4-.3-.5-.2-1.1-.1-1.6.2-.6.7-.4 1.2-.4h1.4c.9 0 1.7-.2 1.7 1.2 0 1.5-.9 1.3-1.8 1.2h-.6zm12.3-75.9c.2 1-.6 1.6-1.2 1.3-1-.5-3.1 1-3.1-1.4 0-2.2 1.8-1 2.8-1.2.9-.2 1.7.1 1.5 1.3z" fill="#16a34a" />
  <path d="M125.8 137c.3 1-.4 1.3-1 1.4-2.1.2-3-.3-2.9-1.6.2-2 1.7-.7 2.6-1 .9-.3 1.6.1 1.3 1.2zm121.7 55.6c2.2 0 2.2.1 2.2 1.6 0 .8-.8 1.1-1 1-.9-.3-1.8-.1-2.6-.2-.8-.2-.4-.9-.5-1.4-.1-.4-.1-1 .6-1h1.3zm-111.7 59.9-.5-.5c.2.2.6-.1.7.2l-.2.3zm21.4-99.3-.1-.4.3.2-.2.2z" fill="#0284c7"/>
  <path d="m144.4 144.7.1.2-.1-.2zm10.3 6.2-.1.1h-.1l.2-.1zm53.5-2.5-.2.2.2-.2zM69 321.1l-.1.2.1-.2zm109.7-188.2-.2.2c-.2-.1 0-.2.2-.2zM194.9 351l-.2.1.2-.1c-.1-.1 0 0 0 0z" fill="#16a34a" />
  <path d="m206 164.3-.2.2v-.2c.1-.1.2-.1.2 0zm-39.4 171.3.2.3c-.2.1-.2 0-.2-.2-.1 0 0-.1 0-.1zM223 164.3l-.7.8v-.6h.8l-.1-.2z" fill="#0284c7"/>
  <path d="M229.6 318.4c-.1 0-.1-.1 0 0l.1-.1-.1.1zm-57.8-171.8-.1.1h-.1l.2-.1z" fill="#16a34a" />
  <path d="m116.1 256.1-.2.2c-.2-.2-.1-.2.1-.3l.1.1zm86.3-3.3-.3.1.2-.2.1.1zm15.2-5.1-.1.2-.1-.2h.2z" fill="#0284c7"/>
  <path d="M240.2 243.1c-.1-.1-.2-.2-.1-.3l.2.2-.1.1zm-6.1-1.7.2.1h-.1l-.1-.1z" fill="#16a34a" />
  <path d="m253.4 230.3-.2.2-.1-.1c.1-.1.1-.2.3-.1zm-5.9-.1.2-.2.1.1c-.2.1-.2.2-.3.1zM177.9 283l-.4.1.2-.3.2.2zm31.5-54.7-.1.2.1-.2c0 .1 0 .1 0 0 .1.1 0 0 0 0zM129.1 214v.2h-.1l.1-.2z" fill="#0284c7"/>
  <path d="m170.6 205.7-.2.1.2-.1zm43.5 83.3-.2.1.2-.1z" fill="#16a34a" />
  <path d="M193.3 204.1c-.1.2-.2.2-.3.2l.1-.3.2.1zm-.1 87.7v.2h-.1l.1-.2zm14.4-89.6-.2.2v-.1l.2-.1c0 .1 0 0 0 0z" fill="#0284c7"/>
  <path d="m149.7 201.6.1.1v.1l-.1-.2zm39.5-8.7-.1.1h-.1l.2-.1z" fill="#16a34a" />
  <path d="M190.8 315.5c0 .1-.1.2-.2.1l.1-.3.1.2zm45.8-129.6c-.1-.1-.2-.3 0-.4l.2.2-.2.2z" fill="#0284c7"/>
  <path d="M105.5 173.6c2 .5 3.1 1.8 3.7 3.1.9 1.8 2.2 2.2 4.1 2.2 3.4-.1 3.9.5 3.9 3.8v13.1c0 2.7-.6 3.4-3.2 3.4H85.4c-2.3 0-3-.6-3-2.9v-14.4c0-2.2.8-3 3-3h19.2c2.9 0 3.3-.6 2-3.3l-1.1-2zm-35.1 6a4.3 4.3 0 0 1-2-2c-.4-.8-1-1-1.8-1-2.4 0-2.5-.1-2.5-2.5V167c0-1.4.5-1.9 1.8-1.9h15.6c1.4 0 2 .5 2 1.9v7.8c0 1.2-.7 1.7-1.9 1.7H71.3c-1.8 0-2.1.5-1.3 2.1.3.3.6.5.4 1zm26.8-4.1a6 6 0 0 1-2.5-2.5c-.5-1-1.2-1.2-2.2-1.2-2.9 0-3.1-.1-3.1-3.1V160c0-1.7.6-2.3 2.2-2.3h19.3c1.8 0 2.5.6 2.5 2.3v9.7c0 1.4-.8 2.1-2.3 2.1H98.4c-2.3 0-2.6.6-1.5 2.6.2.2.5.4.3 1.1zm-33 23.5a6 6 0 0 1-2.5-2.5c-.5-1-1.2-1.2-2.2-1.2-2.9 0-3.1-.1-3.1-3.1v-8.7c0-1.7.6-2.3 2.2-2.3h19.3c1.8 0 2.5.6 2.5 2.3v9.7c0 1.4-.8 2.1-2.3 2.1H65.4c-2.3 0-2.6.6-1.5 2.6.1.3.5.5.3 1.1zm25.5 94a7.3 7.3 0 0 1-3.1-2.9c-.6-1.2-1.5-1.4-2.8-1.4-3.7 0-3.8-.1-3.8-3.6v-10.3c0-2 .7-2.7 2.8-2.7h24.1c2.2 0 3.1.7 3.1 2.7v11.4c0 1.7-1 2.5-2.9 2.5H91.3c-2.8 0-3.3.7-1.9 3.1.1.2.6.4.3 1.2zm5.9-45.7c1.7.4 2.5 1.5 3.1 2.6.8 1.5 1.8 1.9 3.4 1.8 2.8-.1 3.3.4 3.3 3.1v10.9c0 2.2-.5 2.8-2.7 2.8H78.9c-1.9 0-2.5-.5-2.5-2.4v-12c0-1.8.7-2.5 2.5-2.5h15.9c2.4 0 2.7-.5 1.7-2.8l-.9-1.5z" fill="#16a34a" />
  <path d="M27.3 198.4a4.3 4.3 0 0 1-2-2c-.4-.8-1-1-1.8-1-2.4 0-2.5-.1-2.5-2.5v-7.1c0-1.4.5-1.9 1.8-1.9h15.6c1.4 0 2 .5 2 1.9v7.8c0 1.2-.7 1.7-1.9 1.7H28.2c-1.8 0-2.1.5-1.3 2.1.3.4.6.5.4 1zm34.8 97.9c-1-.5-1.7-1.1-2.2-2-.4-.8-1-1-1.9-1-2.6 0-2.7-.1-2.7-2.5v-7.1c0-1.4.5-1.9 2-1.9h17c1.6 0 2.2.5 2.2 1.9v7.8c0 1.2-.7 1.7-2.1 1.7H63.2c-2 0-2.3.5-1.4 2.1.2.4.5.5.3 1zm53.2-51.9c-1.1-.6-2.1-1.4-2.6-2.4s-1.2-1.2-2.3-1.2c-3.1 0-3.2-.1-3.2-3v-8.4c0-1.6.6-2.2 2.4-2.2h20.3c1.9 0 2.6.5 2.6 2.2v9.4c0 1.4-.9 2.1-2.5 2h-13.4c-2.4 0-2.7.5-1.6 2.5.2.3.5.5.3 1.1zm10.5-18.8c.4-1.9.4-1.9-1.5-1.9h-6.5c-1.1 0-1.6-.4-1.6-1.6V217c0-1 .4-1.6 1.4-1.6h11.2c.9 0 1.3.4 1.3 1.3v5.6c0 .6-.2 1.3-.7 1.2-1.8-.2-2.5 1.1-3.6 2.1z" fill="#0284c7"/>
  <path d="M109.9 212c-.5-.3-.9-.6-1.1-1.1-.2-.4-.5-.5-1-.5-1.3 0-1.3 0-1.3-1.3v-3.8c0-.7.3-1 1-1h8.4c.8 0 1.1.2 1.1 1v4.2c0 .6-.4.9-1 .9h-5.5c-1 0-1.1.2-.7 1.1.1.2.2.2.1.5zm-27.3-75c.4-1.3.4-1.3-.8-1.3h-4c-.6 0-.8-.2-.8-.8v-3.3c0-.6.2-.8.8-.8h6.8c.6 0 .9.3.9.9v3.2c0 .4-.1.9-.6.8-.9-.1-1.4.4-1.8 1.1l-.5.2z" fill="#16a34a" />
  <path d="M91 153.6a4.3 4.3 0 0 1-2-2c-.4-.8-1-1-1.8-1-2.4 0-2.5-.1-2.5-2.5V141c0-1.4.5-1.9 1.8-1.9h15.6c1.4 0 2 .5 2 1.9v7.8c0 1.2-.7 1.7-1.9 1.7H91.9c-1.8 0-2.1.5-1.3 2.1.3.4.6.5.4 1zm17.4-4.7c-.3-.2-.5-.3-.6-.6a.5.5 0 0 0-.5-.3c-.7 0-.7 0-.7-.7v-2.1c0-.4.1-.5.5-.5h4.6c.4 0 .6.1.6.5v2.3c0 .3-.2.5-.6.5h-3c-.5 0-.6.1-.4.6l.1.3zm-49.8 13.6c.4-1.9.4-1.9-1.5-1.9h-6.5c-1.1 0-1.6-.4-1.6-1.6v-5.1c0-1 .4-1.6 1.4-1.6h11.2c.9 0 1.3.4 1.3 1.3v5.6c0 .6-.2 1.3-.7 1.2-1.8-.2-2.5 1.1-3.6 2.1zm-30.1 112a4.3 4.3 0 0 1-2-2c-.4-.8-1-1-1.8-1-2.4 0-2.5-.1-2.5-2.5v-7c0-1.4.5-1.9 1.8-1.9h15.6c1.4 0 2 .5 2 1.9v7.8c0 1.2-.7 1.7-1.9 1.7H29.4c-1.8 0-2.1.5-1.3 2.1.3.2.6.4.4.9zm17.9 43.6c-1.2-.7-2.1-1.5-2.6-2.6s-1.3-1.3-2.4-1.3c-3.1 0-3.3-.1-3.3-3.3v-9.3c0-1.8.6-2.5 2.4-2.5H61c1.9 0 2.6.6 2.7 2.5v10.3c0 1.5-.9 2.3-2.5 2.2H47.7c-2.4 0-2.8.6-1.6 2.8.2.4.6.6.3 1.2zm-1.9-20.6c.4-1.9.4-1.9-1.5-1.9h-6.5c-1.1 0-1.6-.4-1.6-1.6v-5.1c0-1 .4-1.6 1.4-1.6h11.2c.9 0 1.3.4 1.3 1.3v5.6c0 .6-.2 1.3-.7 1.2-1.8-.2-2.6 1.1-3.6 2.1zm-.1-26.7c.9.6 1.7 1.2 2.1 2.1.4.9 1 1.1 1.9 1.1 2.5 0 2.7.1 2.7 2.7v7.6c0 1.5-.5 2-1.9 2H32.4c-1.5 0-2.1-.5-2.2-2v-8.4c0-1.3.7-1.9 2-1.8h11c2 0 2.3-.5 1.3-2.3 0-.3-.3-.4-.1-1zm-24.3-72.7c-1 2.2-1 2.2 1.3 2.2h7.1c1.1 0 1.4.3 1.4 1.5v5.7c0 1.2-.3 1.5-1.4 1.5h-12c-1.1 0-1.4-.3-1.4-1.4v-5.9c0-1 .4-1.4 1.4-1.3 1 .1 1.7-.1 2.2-1.1.2-.5.7-1 1.4-1.2zm30.2-29.5c-.6 2.1-.6 2.1 1.7 2.1h7c1 0 1.6.4 1.6 1.4v5.9c0 .9-.4 1.4-1.4 1.4H46.8c-.9 0-1.3-.4-1.3-1.3v-6.2c0-.6.2-1.3.9-1.2 1.6.2 2.4-.6 3.1-1.7.1-.2.4-.5.8-.4zm-6.1 16.3c.2-.9.2-.9-.7-.9h-3.1c-.5 0-.8-.2-.7-.7v-2.4c0-.5.2-.7.7-.7h5.3c.4 0 .6.2.6.6v2.6c0 .3-.1.6-.3.6-1-.2-1.3.4-1.8.9zm1.7-18.9c.2-.9.2-.9-.7-.9h-3.1c-.5 0-.8-.2-.7-.7V162c0-.5.2-.7.7-.7h5.3c.4 0 .6.2.6.6v2.6c0 .3-.1.6-.3.6-.9-.2-1.3.5-1.8.9zm36.7-3.5c.2-1.1.2-1.1-.9-1.1h-3.9c-.7 0-.9-.3-.9-.9v-3c0-.6.2-.9.8-.9h6.6c.5 0 .8.2.8.8v3.3c0 .3-.1.8-.4.7-1.1-.3-1.5.5-2.1 1.1zm5.2-6.5c.1-.4.1-.4-.4-.4h-1.5c-.3 0-.4-.1-.4-.4V154c0-.2.1-.4.3-.4h2.6c.2 0 .3.1.3.3v1.3c0 .1 0 .3-.2.3s-.4.3-.7.5zm-7-4.2c-.1.5-.1.5.5.5h1.8c.3 0 .4.1.4.4v1.6c0 .2-.1.4-.4.4h-3.2c-.2 0-.4-.1-.4-.3v-1.6c0-.2.1-.3.2-.3.4.1.6-.2.8-.5.1-.2.2-.2.3-.2zm-2.2-9.4c-.2.6-.2.6.5.6h2.2c.3 0 .5.1.5.4v1.8c0 .3-.1.4-.4.4h-3.8c-.3 0-.4-.1-.4-.4v-1.9c0-.2.1-.4.3-.4.5.1.7-.2 1-.5-.1.1-.1 0 .1 0zM62 147.2c-.2.6-.2.6.5.6h2.2c.3 0 .5.1.5.4v1.8c0 .3-.1.4-.4.4H61c-.3 0-.4-.1-.4-.4v-1.9c0-.2.1-.4.3-.4.5.1.7-.2 1-.5 0 0 0-.1.1 0zm-24.3 25.3c.2-.9.2-.9-.7-.9h-3.1c-.5 0-.8-.2-.7-.7v-2.4c0-.5.2-.7.7-.7h5.3c.4 0 .6.2.6.6v2.6c0 .3-.1.6-.3.6-1-.2-1.3.4-1.8.9zm-10.5 5.8c-.2.9-.2.9.7.9h3c.4 0 .7.2.7.6v2.5c0 .4-.2.6-.6.6h-5.2c-.4 0-.6-.2-.6-.6v-2.6c0-.3.1-.5.4-.5.7.1 1-.3 1.3-.7l.3-.2zm4-2.9c.1-.4.1-.4-.4-.4h-1.5c-.3 0-.4-.1-.4-.4v-1.2c0-.2.1-.4.3-.4H32c.2 0 .3.1.3.3v1.3c0 .1 0 .3-.2.3-.4 0-.6.3-.9.5zm16.1 17.4c.2-1.2.2-1.2-.9-1.2h-4c-.7 0-1-.3-1-1v-3.1c0-.6.2-1 .9-1h6.9c.6 0 .8.2.8.8v3.4c0 .3-.1.8-.4.7-1.2 0-1.7.8-2.3 1.4zm-28.2 24.8c.3-1.4.3-1.4-1.1-1.4h-4.7c-.8 0-1.1-.3-1.1-1.1v-3.7c0-.7.3-1.1 1-1.1h8c.7 0 .9.3.9 1v4c0 .4-.1.9-.5.9-1.2-.3-1.7.7-2.5 1.4z" fill="#0284c7"/>
  <path d="M63.5 253.3c-.7-.4-1.2-.9-1.5-1.5-.3-.6-.7-.7-1.3-.7-1.8 0-1.8-.1-1.8-1.8V244c0-1 .4-1.4 1.3-1.4h11.6c1.1 0 1.5.3 1.5 1.4v5.8c0 .9-.5 1.3-1.4 1.3h-7.6c-1.4 0-1.6.3-.9 1.6 0 .1.2.2.1.6zm22.5-4.1c0-1.1 0-1.1-1.2-1.1h-3.5c-.8 0-1.2-.3-1.2-1.1v-2.8c0-.7.3-1 1-1h6.5c.8 0 1.1.4 1.1 1.1v2c0 1 .2 2-1.4 1.9-.7-.1-.7.9-1.3 1zm-22.3 28.3a4 4 0 0 1-1.8-1.6c-.4-.6-.8-.8-1.6-.8-2.1 0-2.2-.1-2.2-1.9v-5.5c0-1.1.4-1.5 1.6-1.5h13.7c1.3 0 1.8.4 1.8 1.5v6.2c0 .9-.6 1.4-1.7 1.3h-9c-1.6 0-1.8.4-1.1 1.7.2 0 .5.2.3.6zm-11.1-15.4c-.5-.2-.8-.5-1-.9-.2-.4-.5-.5-.9-.5-1.2 0-1.3 0-1.3-1.1v-3.2c0-.6.2-.9.9-.9h8c.7 0 1 .2 1 .9v3.6c0 .5-.3.8-1 .8H53c-.9 0-1.1.2-.6 1 .1 0 .3.1.2.3zm17.4-1.7c0-1.1 0-1.1-1.2-1.1h-3.5c-.8 0-1.2-.3-1.2-1.1v-2.8c0-.7.3-1 1-1h6.5c.8 0 1.1.4 1.1 1.1v2c0 1 .2 2-1.4 1.9-.6-.1-.6.9-1.3 1zM44.1 254c0-1.1 0-1.1-1.2-1.1h-3.5c-.8 0-1.2-.3-1.2-1.1V249c0-.7.3-1 1-1h6.5c.8 0 1.1.4 1.1 1.1v2c0 1 .2 2-1.4 1.9-.7-.1-.7.8-1.3 1zm80.1-69.8c.3-1.1.3-1.1-.7-1.1h-3.4c-.5 0-.7-.2-.7-.7v-2.8c0-.5.2-.7.7-.7h5.7c.5 0 .8.2.8.8v2.7c0 .4-.1.8-.5.7-.8-.1-1.1.4-1.5.9l-.4.2zm-52.7-47.3c.2-.7.2-.7-.4-.7H69c-.3 0-.4-.1-.4-.4v-1.7c0-.3.1-.4.4-.4h3.5c.3 0 .5.1.5.5v1.6c0 .2-.1.5-.3.4-.5-.1-.7.2-.9.5-.1.1-.1.2-.3.2zM28.3 248.1c-.1-1.8-.1-1.8-2-1.8h-5.7c-1.3 0-2-.4-1.9-1.8v-4.6c0-1.2.5-1.7 1.7-1.6h10.5c1.3 0 1.7.6 1.7 1.8v3.2c0 1.6.3 3.3-2.3 3.1-1-.1-1 1.5-2 1.7zm.7-12.6c-.1-1.4-.1-1.4-1.5-1.4h-4.4c-1 0-1.5-.3-1.5-1.4v-3.5c0-.9.4-1.3 1.3-1.2h8c1 0 1.3.5 1.3 1.4v2.4c0 1.2.2 2.5-1.7 2.4-.7-.1-.7 1.2-1.5 1.3zm.5-14.9c0-.9 0-.9-1-.9h-2.9c-.7 0-1-.2-1-.9v-2.3c0-.6.3-.8.8-.8h5.3c.7 0 .9.3.9.9v1.6c0 .8.2 1.7-1.2 1.6-.4-.1-.4.7-.9.8zm-12.4 9c0-.7 0-.7-.8-.7h-2.2c-.5 0-.8-.2-.7-.7v-1.7c0-.5.2-.6.6-.6h4c.5 0 .7.2.7.7v1.2c0 .6.1 1.3-.9 1.2-.3-.1-.3.5-.7.6zm-4.4 6.4-.7-.6c-.1-.3-.3-.3-.6-.3-.9 0-.9 0-.9-.8V232c0-.4.2-.6.7-.6h5.6c.5 0 .7.1.7.6v2.5c0 .4-.2.6-.7.5h-3.7c-.7 0-.8.1-.5.7.1.1.2.2.1.3z" fill="#16a34a" />
  <path d="M12 218.4c-.2.7-.2.7.5.7h2.2c.3 0 .5.1.5.5v1.9c0 .3-.1.5-.4.5h-3.9c-.3 0-.4-.1-.4-.4v-2c0-.2.1-.4.3-.4.5.1.8-.2 1-.6l.2-.2zm9.7 5.9c.1-.7.1-.7-.5-.7h-2.3c-.4 0-.6-.2-.5-.5v-1.8c0-.4.1-.5.5-.5h3.9c.3 0 .5.1.5.5v1.9c0 .2-.1.4-.3.4-.6-.1-.9.4-1.3.7zM13.5 242c.1-.7.1-.7-.5-.7h-2.3c-.4 0-.6-.2-.5-.5V239c0-.4.1-.5.5-.5h3.9c.3 0 .5.1.5.5v1.9c0 .2-.1.4-.3.4-.7-.1-1 .4-1.3.7zm.8 1.2c-.2.7-.2.7.5.7H17c.3 0 .5.1.5.5v1.9c0 .3-.1.5-.4.5h-3.9c-.3 0-.4-.1-.4-.4v-2c0-.2.1-.4.3-.4.5.1.8-.2 1-.6 0-.2.1-.2.2-.2zm5.6 9.1c-.1.5-.1.5.4.5H22c.2 0 .4.1.4.3v1.4c0 .2-.1.3-.3.3H19c-.2 0-.3-.1-.3-.3V253l.2-.3c.4.1.6-.1.7-.4h.3zm12.2 6.4c.3-1.4.3-1.4-1.1-1.4h-4.7c-.8 0-1.1-.3-1.1-1.1v-3.7c0-.7.3-1.1 1-1.1h8c.7 0 .9.3.9 1v4c0 .4-.1.9-.5.9-1.2-.3-1.7.7-2.5 1.4zm15.7 10.2c.2-1 .2-1-.8-1h-3.3c-.6 0-.8-.2-.8-.8v-2.6c0-.5.2-.8.7-.8h5.7c.5 0 .7.2.7.7v2.8c0 .3-.1.6-.4.6-.9 0-1.3.7-1.8 1.1zm9.6 7.3c-.2.7-.2.7.5.7h2.2c.3 0 .5.1.5.5v1.9c0 .3-.1.5-.4.5h-3.9c-.3 0-.4-.1-.4-.4v-2c0-.2.1-.4.3-.4.5.1.8-.2 1-.6 0-.2 0-.2.2-.2z" fill="#0284c7"/>
  <path d="M17.4 265.2c-.1-1.4-.1-1.4-1.6-1.4h-4.6c-1 0-1.6-.3-1.5-1.5v-3.7c0-1 .4-1.3 1.3-1.3h8.4c1 0 1.4.5 1.4 1.5v2.5c0 1.3.3 2.6-1.8 2.5-.8-.1-.8 1.2-1.6 1.4zm11.8 30c-.1-1.4-.1-1.4-1.6-1.4H23c-1 0-1.6-.3-1.5-1.5v-3.7c0-1 .4-1.3 1.3-1.3h8.4c1 0 1.4.5 1.4 1.5v2.5c0 1.3.3 2.6-1.8 2.5-.8 0-.8 1.3-1.6 1.4zm-7.9-9.4c0-1 0-1-1.1-1H17c-.7 0-1.1-.2-1.1-1v-2.6c0-.7.3-.9.9-.9h5.9c.7 0 1 .3 1 1v1.8c0 .9.2 1.8-1.3 1.7-.5 0-.5.9-1.1 1zm10.1 18.3c0-1 0-1-1.1-1h-3.2c-.7 0-1.1-.2-1.1-1v-2.6c0-.7.3-.9.9-.9h5.9c.7 0 1 .3 1 1v1.8c0 .9.2 1.8-1.3 1.7-.6 0-.6.9-1.1 1zm21.1-105.3c0-.9 0-.9-1-.9h-2.9c-.7 0-1-.2-1-.9v-2.3c0-.6.3-.8.8-.8h5.3c.7 0 .9.3.9.9v1.6c0 .8.2 1.7-1.2 1.6-.4-.1-.4.7-.9.8zm4.9 52a7.2 7.2 0 0 1-3.5-1.7 21 21 0 0 1-5.9-7.4c-.5-1-1.1-1.2-2.2-1.2h-6.9c-3 0-4.8-1.8-4.8-4.6v-29.1c0-2.8 2-4.7 5-4.7h58.3c3.9 0 5.7 1.7 5.7 5.4 0 9.2-.1 18.5.1 27.7.1 3.2-2.1 5.4-5.7 5.3l-40.4-.1H56c-1.6.1-2.2.7-2 2.2a12 12 0 0 0 2.9 6.7c.1.5.6.9.5 1.5z" fill="#16a34a" />
</svg>